# xmcd
#
# Track frame offsets: 
#        150
#        18404
#        36265
#        59425
#        76727
#        104239
#        125590
#        145054
#        164269
#        184622
#        206651
#        228203
#        248661
#        278811
#
# Disc length: 3991 seconds
#
# Revision: 0
# Processed by: cddbd v1.5.1PL0 Copyright (c) Steve Scherf et al.
# Submitted via: ExactAudioCopy v0.95a5
#
DISCID=bf0f950e
DTITLE=Various Artist - Nu Soul Sessions [CD2]
DYEAR=2005
DGENRE=Nu Soul
TTITLE0=Floetry (feat. Mos Def) - Wanna B Where U R (thisizzaluvsong)
TTITLE1=Sara Devine - Take Me Home
TTITLE2=Donnie - Cloud 9
TTITLE3=Hil St. Soul (feat. Roots Manuva) - Copasetik and Cool
TTITLE4=Raphael Saadiq - Skyy, Can You Feel Me
TTITLE5=Conya Doss - Stay
TTITLE6=Pete Rock (feat. C.L. Smooth and Denosh) - It's A Love Thing
TTITLE7=Vanessa Freeman - Dawning Of A New Day
TTITLE8=Star 69 - Days Of Young
TTITLE9=DJ Spinna (feat. Ovasoul 7) - Surely
TTITLE10=The Society - Leave Your Worries
TTITLE11=Rhian Benson (feat. Slum Village and Dwele) - Say How I Feel
TTITLE12=Juliette Leon and Myron - Two Hearts (Richy Pitch Modern Soul R
TTITLE12=e-Rub)
TTITLE13=Cooly's Hot Box - Lose Your Friends
EXTD=
EXTT0=
EXTT1=
EXTT2=
EXTT3=
EXTT4=
EXTT5=
EXTT6=
EXTT7=
EXTT8=
EXTT9=
EXTT10=
EXTT11=
EXTT12=
EXTT13=
PLAYORDER=
